<?xml version="1.0" encoding="UTF-8"?><svg xmlns="http://www.w3.org/2000/svg" xmlns:xlink="http://www.w3.org/1999/xlink" height="500.0" preserveAspectRatio="xMidYMid meet" version="1.0" viewBox="0.0 0.0 696.0 500.0" width="696.0" zoomAndPan="magnify"><defs><clipPath id="a"><path d="M 0 0 L 695.96875 0 L 695.96875 500.019531 L 0 500.019531 Z M 0 0"/></clipPath></defs><g><g id="change1_2"><path d="M 318.148438 50.492188 L 652.449219 50.492188 C 653.851562 188.792969 655.148438 327.09375 656.550781 465.394531 C 451.449219 461.992188 246.351562 458.59375 41.25 455.195312 L 41.25 50.492188 L 271.148438 50.492188" fill="#f8b30d"/></g><g clip-path="url(#a)" id="change2_1"><path d="M 282.25 378.59375 C 264.050781 377.292969 245.851562 376.492188 227.550781 376.09375 C 219.050781 375.894531 210.550781 375.792969 202.050781 375.792969 C 194.25 375.695312 185.050781 376.992188 177.351562 375.792969 C 176.148438 375.195312 174.851562 374.992188 173.648438 375.394531 C 173.449219 375.492188 173.25 375.492188 173.050781 375.59375 C 170.25 376.492188 167.550781 379.894531 168.851562 382.992188 C 171.648438 389.792969 177.25 388.695312 183.851562 388.59375 C 194.75 388.492188 205.75 388.492188 216.648438 388.394531 C 238.550781 388.09375 260.449219 387.195312 282.351562 385.59375 C 286.75 385.195312 286.75 378.894531 282.25 378.59375 Z M 273.449219 407.292969 C 238.148438 405.59375 203.050781 406.195312 167.648438 406.792969 C 159.550781 406.894531 159.449219 419.59375 167.648438 419.394531 C 203.050781 418.59375 238.148438 417.695312 273.449219 414.695312 C 278.148438 414.292969 278.25 407.492188 273.449219 407.292969 Z M 537.148438 412.394531 C 521.648438 408.09375 505.050781 407.292969 489.050781 405.894531 C 472.050781 404.394531 455.050781 403.09375 438.050781 401.992188 C 429.851562 401.394531 429.949219 414.195312 438.050781 414.695312 C 455.050781 415.792969 472.050781 416.792969 489.050781 417.492188 C 504.949219 418.195312 521.25 419.492188 537.148438 417.195312 C 539.75 416.792969 539.351562 412.992188 537.148438 412.394531 Z M 679.75 247.492188 C 678.75 211.195312 676.851562 174.992188 674.550781 138.792969 C 657.550781 135.894531 641.050781 127.492188 626.648438 116.695312 C 625.351562 118.492188 624.148438 120.195312 623.351562 122.09375 C 620.449219 129.394531 622.75 139.894531 617.851562 145.792969 C 613.550781 150.992188 604.851562 151.292969 598.351562 154.09375 L 645.851562 266.394531 L 611.949219 243.492188 L 593.449219 295.792969 L 584.648438 272.792969 C 568.550781 273.59375 552.550781 275.695312 536.449219 276.394531 C 532.351562 276.59375 528.351562 276.792969 524.25 276.894531 L 521.648438 283.792969 L 520.25 277.09375 C 508.25 277.492188 496.25 277.894531 484.25 278.195312 C 420.648438 279.695312 357.050781 280.394531 293.449219 281.09375 C 261.648438 281.492188 229.75 281.792969 197.949219 282.195312 C 182.347656 282.394531 166.75 282.492188 151.148438 282.695312 C 135.949219 282.894531 119.449219 284.894531 104.449219 281.992188 C 98.148438 280.792969 98.347656 270.695312 104.449219 269.394531 C 121.648438 265.695312 141.148438 267.792969 158.648438 267.59375 C 176.148438 267.394531 193.648438 267.195312 211.148438 267.09375 C 274.847656 266.394531 338.550781 265.59375 402.25 265.09375 C 423.25 264.992188 444.25 264.894531 465.351562 264.992188 L 481.851562 226.195312 C 437.25 231.695312 391.851562 232.992188 347.050781 234.59375 C 319.648438 235.59375 292.25 236.394531 264.949219 236.992188 C 251.25 237.292969 237.550781 237.59375 223.847656 237.792969 C 210.449219 237.992188 196.148438 239.59375 182.75 237.792969 C 175.75 236.894531 172.347656 225.394531 180.847656 224.09375 C 194.25 221.992188 208.347656 222.992188 221.949219 222.792969 C 235.050781 222.59375 248.050781 222.292969 261.148438 221.992188 C 288.550781 221.394531 315.949219 220.59375 343.25 219.792969 C 390.648438 218.292969 438.449219 215.195312 486.050781 216.09375 L 513.949219 150.394531 C 513.851562 150.292969 513.648438 150.09375 513.550781 149.992188 C 507.550781 144.992188 496.851562 143.992188 492.75 137.394531 C 488.648438 130.894531 492.351562 120.792969 490.449219 113.195312 C 488.550781 105.894531 480.449219 98.792969 481.050781 90.792969 C 481.648438 82.792969 490.550781 76.894531 493.449219 69.894531 C 496.351562 62.59375 494.050781 52.09375 498.949219 46.195312 C 503.949219 40.195312 514.648438 40.695312 521.25 36.492188 C 527.75 32.394531 532.050781 22.492188 539.648438 20.59375 C 546.949219 18.695312 555.449219 25.394531 563.351562 25.894531 C 564.449219 25.992188 565.550781 25.894531 566.648438 25.792969 C 565.851562 21.894531 565.25 17.894531 565.25 14.09375 C 549.25 14.09375 533.148438 13.992188 517.148438 13.894531 C 433.648438 13.59375 350.148438 13.195312 266.550781 12.292969 C 219.75 11.792969 172.847656 11.894531 126.148438 15.09375 C 125.449219 40.894531 110.449219 67.492188 94.550781 86.292969 C 75.347656 108.992188 49.648438 126.394531 22.148438 137.292969 C 21.847656 137.394531 21.550781 137.492188 21.347656 137.492188 C 20.050781 176.394531 18.449219 215.292969 17.648438 254.09375 C 16.847656 292.292969 16.347656 330.59375 16.050781 368.792969 C 38.949219 374.492188 60.449219 390.894531 75.949219 407.292969 C 93.550781 425.894531 110.847656 452.59375 113.847656 478.792969 C 129.449219 478.09375 144.949219 477.492188 160.550781 476.992188 C 249.449219 474.195312 338.351562 474.894531 427.148438 478.792969 C 470.648438 480.695312 514.050781 484.492188 557.648438 485.695312 C 561.050781 485.792969 564.449219 485.792969 567.851562 485.894531 C 570.949219 454.59375 585.851562 424.292969 605.75 400.492188 C 623.949219 378.695312 651.949219 356.09375 681.25 350.992188 C 680.851562 316.492188 680.75 281.992188 679.75 247.492188 Z M 680.449219 361.195312 C 669.75 366.695312 658.949219 371.695312 648.949219 378.792969 C 636.648438 387.492188 625.550781 397.992188 615.949219 409.59375 C 597.449219 432.09375 587.351562 457.894531 582.351562 485.992188 C 614.050781 485.792969 645.351562 483.59375 677.050781 480.09375 C 678.648438 440.492188 679.851562 400.894531 680.449219 361.195312 Z M 98.347656 479.59375 C 94.449219 468.492188 91.550781 457.492188 85.949219 446.992188 C 80.050781 435.894531 72.949219 425.59375 64.648438 416.195312 C 56.25 406.792969 46.75 398.492188 36.347656 391.394531 C 29.648438 386.792969 22.550781 383.09375 15.347656 379.394531 C 15.25 395.792969 15.148438 412.195312 15.148438 428.695312 C 15.148438 438.695312 15.148438 448.695312 15.148438 458.695312 C 15.148438 467.292969 15.847656 476.09375 14.347656 484.695312 C 42.347656 482.59375 70.347656 480.992188 98.347656 479.59375 Z M 21.25 121.992188 C 43.847656 110.894531 64.847656 97.492188 81.847656 78.492188 C 90.847656 68.492188 98.347656 57.195312 104.25 45.09375 C 108.949219 35.59375 111.648438 25.792969 114.449219 15.792969 C 83.449219 18.292969 52.648438 22.195312 22.050781 28.292969 C 22.648438 59.59375 22.148438 90.792969 21.25 121.992188 Z M 528.648438 265.394531 C 533.75 265.492188 538.75 265.59375 543.851562 265.695312 C 556.851562 266.09375 569.75 267.394531 582.75 267.992188 L 555.25 195.894531 Z M 512.949219 243.695312 L 470.851562 264.792969 C 479.648438 264.792969 488.351562 264.792969 497.148438 264.894531 C 503.949219 264.894531 510.75 264.992188 517.550781 265.09375 Z M 691.851562 480.492188 C 691.351562 487.792969 682.550781 489.492188 678.75 485.394531 C 635.550781 499.492188 587.449219 499.695312 542.648438 498.394531 C 454.148438 495.894531 365.949219 490.195312 277.351562 490.292969 C 187.851562 490.394531 98.347656 493.492188 9.050781 499.992188 C 2.550781 500.492188 0.449219 493.695312 2.75 489.09375 C 2.148438 488.394531 1.75 487.59375 1.449219 486.695312 C -0.652344 477.59375 0.148438 467.992188 0.148438 458.695312 C 0.148438 448.695312 0.148438 438.695312 0.25 428.695312 C 0.347656 409.292969 0.449219 389.894531 0.648438 370.59375 C 1.050781 331.792969 1.648438 293.09375 2.550781 254.292969 C 4.351562 176.394531 4.550781 97.394531 13.550781 19.992188 C 13.949219 16.394531 17.847656 15.195312 20.148438 16.59375 C 52.75 10.09375 85.75 5.992188 118.851562 3.59375 C 120.050781 2.695312 121.550781 2.695312 122.851562 3.292969 C 133.449219 2.59375 144.148438 1.992188 154.851562 1.59375 C 237.75 -1.804688 321.148438 0.992188 404.050781 2.992188 C 489.050781 5.09375 574.148438 5.792969 659.148438 9.695312 C 661.550781 9.792969 661.550781 13.394531 659.148438 13.394531 C 630.25 13.992188 601.351562 14.09375 572.449219 13.992188 C 574.25 17.09375 575.851562 20.195312 577.351562 23.492188 C 580.851562 22.792969 584.25 22.492188 587.25 23.695312 C 594.550781 26.59375 597.449219 36.992188 603.351562 41.894531 C 609.351562 46.894531 620.050781 47.894531 624.148438 54.492188 C 628.25 60.992188 624.550781 71.09375 626.449219 78.695312 C 628.351562 85.992188 636.449219 93.09375 635.851562 101.09375 C 635.75 102.195312 635.550781 103.195312 635.148438 104.195312 C 638.25 106.394531 641.351562 108.492188 644.648438 110.492188 C 653.949219 116.09375 663.550781 119.492188 673.550781 122.792969 C 670.851562 86.992188 666.148438 50.894531 666.148438 14.992188 C 666.148438 10.492188 673.050781 9.492188 674.050781 13.894531 C 682.75 51.59375 684.851562 91.59375 687.851562 129.992188 C 690.949219 168.394531 692.949219 206.894531 694.25 245.394531 C 696.851562 323.695312 696.851562 402.394531 691.851562 480.492188 Z M 263.148438 185.894531 C 322.148438 185.292969 382.449219 186.695312 440.949219 179.292969 C 444.25 178.894531 444.351562 174.492188 440.949219 174.09375 C 382.25 167.894531 322.050781 170.59375 263.148438 171.195312 C 253.75 171.292969 253.75 185.992188 263.148438 185.894531 Z M 593.851562 312.394531 C 562.25 308.292969 530.050781 308.492188 498.148438 308.195312 C 465.648438 307.792969 433.148438 307.792969 400.550781 307.792969 C 336.75 307.792969 272.949219 308.09375 209.25 308.492188 C 172.351562 308.792969 135.449219 309.09375 98.550781 309.492188 C 88.949219 309.59375 88.847656 324.59375 98.550781 324.492188 C 226.75 323.09375 354.949219 323.292969 483.148438 322.59375 C 519.949219 322.394531 557.25 323.394531 593.851562 318.992188 C 598.050781 318.394531 598.050781 312.894531 593.851562 312.394531 Z M 546.851562 381.09375 C 509.25 377.992188 471.449219 377.695312 433.648438 376.195312 C 424.949219 375.894531 424.949219 389.394531 433.648438 389.695312 C 471.351562 390.992188 509.25 391.792969 546.851562 387.894531 C 551.148438 387.492188 551.25 381.492188 546.851562 381.09375 Z M 334.851562 114.394531 C 334.851562 98.492188 347.75 85.695312 363.550781 85.695312 C 379.449219 85.695312 392.25 98.59375 392.25 114.394531 C 392.25 130.195312 379.351562 143.09375 363.550781 143.09375 C 347.75 143.09375 334.851562 130.195312 334.851562 114.394531" fill="#294595"/></g><g id="change1_1"><path d="M 536.949219 96.894531 C 535.351562 100.59375 534.050781 104.292969 533.648438 108.292969 C 533.351562 111.394531 536.550781 114.09375 539.449219 114.09375 C 542.351562 114.09375 545.550781 111.394531 545.25 108.292969 C 544.949219 104.195312 543.648438 100.59375 541.949219 96.894531 C 541.148438 94.992188 537.75 94.992188 536.949219 96.894531 Z M 573.351562 58.394531 C 563.648438 56.195312 555.148438 56.09375 546.949219 62.59375 C 540.851562 67.394531 532.75 78.195312 535.648438 86.292969 C 536.75 89.292969 540.351562 90.59375 542.851562 88.195312 C 547.351562 83.792969 547.148438 76.492188 551.050781 71.394531 C 556.25 64.292969 564.648438 63.195312 572.851562 62.492188 C 574.949219 62.195312 575.75 58.894531 573.351562 58.394531 Z M 557.148438 36.492188 C 559.148438 36.09375 559.851562 38.792969 557.949219 39.492188 C 544.75 44.292969 528.949219 49.292969 520.449219 61.394531 C 512.851562 72.195312 513.648438 86.992188 515.050781 99.59375 C 516.351562 111.292969 519.851562 123.792969 528.851562 131.894531 C 537.75 139.792969 550.050781 142.195312 561.648438 140.992188 C 573.75 139.792969 587.148438 134.792969 595.148438 125.195312 C 603.351562 115.292969 605.648438 99.292969 605.550781 86.894531 C 605.449219 73.992188 601.25 60.492188 591.050781 52.09375 C 579.949219 42.992188 564.851562 43.992188 551.351562 45.195312 C 544.75 45.792969 544.648438 35.09375 551.351562 34.792969 C 566.25 34.09375 582.050781 33.695312 594.851562 42.492188 C 605.25 49.695312 611.949219 61.695312 614.449219 73.992188 C 619.050781 97.09375 613.75 127.09375 593.351562 141.09375 C 574.550781 153.992188 545.75 157.292969 526.148438 144.09375 C 505.949219 130.492188 502.648438 103.792969 505.25 81.394531 C 508.449219 53.59375 531.75 41.292969 557.148438 36.492188" fill="#f8b30d"/></g></g></svg>