<?xml version="1.0" encoding="UTF-8"?><svg xmlns="http://www.w3.org/2000/svg" xmlns:xlink="http://www.w3.org/1999/xlink" height="499.9" preserveAspectRatio="xMidYMid meet" version="1.0" viewBox="0.0 0.0 509.7 499.9" width="509.7" zoomAndPan="magnify"><defs><clipPath id="a"><path d="M 0 0 L 509.730469 0 L 509.730469 488 L 0 488 Z M 0 0"/></clipPath><clipPath id="b"><path d="M 0 20 L 505 20 L 505 499.890625 L 0 499.890625 Z M 0 20"/></clipPath></defs><g><g clip-path="url(#a)" id="change1_1"><path d="M 370.535156 0.382812 C 428.933594 -1.417969 463.234375 2.28125 492.335938 29.980469 C 501.132812 38.382812 506.933594 46.480469 509.734375 50.882812 C 477.335938 39.78125 459.933594 45.179688 450.433594 50.882812 C 412.234375 73.882812 425.535156 147.980469 422.535156 322.78125 C 420.734375 429.679688 414.835938 454.679688 394.632812 472.679688 C 377.734375 487.78125 361.835938 487.980469 244.734375 486.578125 C 134.035156 485.382812 78.035156 484.179688 46.035156 458.679688 C 21.234375 438.882812 8.035156 413.980469 0.734375 395.882812 C 36.734375 408.480469 56.035156 402.980469 66.933594 395.882812 C 95.433594 377.382812 93.933594 329.882812 91.335938 172.78125 C 89.933594 84.582031 89.632812 40.082031 112.335938 19.480469 C 130.933594 2.679688 149.132812 6.179688 220.335938 5.582031 C 257.433594 5.28125 289.234375 3.882812 316.835938 2.679688 M 316.835938 2.679688 C 336.835938 1.78125 354.535156 0.882812 370.535156 0.382812" fill="#f8b30d"/></g><g clip-path="url(#b)" id="change2_1"><path d="M 361.933594 482.28125 C 327.535156 481.980469 293.234375 484.28125 258.933594 485.78125 C 225.335938 487.28125 191.734375 489.882812 158.035156 487.480469 C 127.433594 485.28125 96.734375 478.578125 69.433594 464.179688 C 45.035156 451.28125 26.335938 433.578125 14.234375 409.679688 C 23.035156 415.28125 34.035156 417.679688 44.933594 418.28125 C 69.234375 419.679688 94.132812 416.179688 118.433594 414.980469 C 168.132812 412.480469 217.933594 410.578125 267.734375 409.382812 C 269.234375 409.382812 270.433594 408.78125 271.234375 407.882812 C 279.632812 440.179688 304.132812 466.578125 335.132812 478.78125 C 339.933594 480.679688 342.035156 472.882812 337.234375 470.980469 C 307.734375 459.382812 285.535156 435.78125 274.234375 406.28125 C 273.933594 405.480469 273.234375 405.078125 272.535156 405.179688 C 273.035156 402.28125 271.433594 398.980469 267.632812 399.078125 C 221.933594 400.28125 176.132812 402.28125 130.535156 405.28125 C 108.035156 406.78125 85.632812 408.679688 63.234375 410.28125 C 44.335938 411.679688 24.734375 410.679688 9.535156 399.179688 C 9.535156 399.179688 9.535156 399.179688 9.535156 399.078125 C 8.933594 397.480469 7.433594 396.480469 5.933594 396.078125 C 5.234375 395.382812 4.535156 394.78125 3.832031 394.078125 C 2.535156 392.78125 0.433594 394.480469 1.332031 395.980469 C 1.433594 396.179688 1.535156 396.28125 1.632812 396.480469 C 0.535156 397.179688 -0.167969 398.480469 0.0351562 400.382812 C 3.035156 423.179688 20.132812 442.78125 37.535156 456.78125 C 56.234375 471.882812 78.035156 482.382812 100.933594 489.179688 C 153.835938 504.78125 210.035156 500.078125 264.132812 495.28125 C 296.933594 492.382812 329.835938 489.980469 362.433594 485.28125 C 364.234375 485.179688 363.734375 482.28125 361.933594 482.28125 Z M 346.632812 361.578125 C 343.035156 362.480469 339.234375 362.980469 335.335938 362.980469 C 331.035156 362.980469 326.835938 362.382812 322.933594 361.28125 C 322.734375 371.882812 320.632812 382.78125 319.335938 393.078125 C 318.535156 399.480469 317.734375 405.882812 316.835938 412.28125 C 319.035156 407.578125 320.835938 401.980469 325.035156 398.980469 C 327.234375 397.382812 330.035156 398.78125 331.035156 400.980469 C 334.632812 406.679688 339.933594 411.480469 344.335938 416.882812 C 344.035156 406.882812 344.734375 396.78125 345.234375 386.882812 C 345.734375 378.882812 345.335938 369.78125 346.632812 361.578125 Z M 357.433594 357.480469 C 358.835938 367.882812 355.835938 380.078125 354.835938 390.179688 C 353.632812 401.882812 352.632812 413.78125 349.632812 425.28125 C 349.835938 425.679688 349.933594 426.078125 350.132812 426.480469 C 351.535156 430.382812 346.433594 434.179688 343.035156 431.882812 C 338.132812 428.480469 334.632812 422.480469 331.734375 417.28125 C 330.433594 414.980469 328.933594 412.480469 327.835938 409.882812 C 327.433594 410.480469 327.035156 410.980469 326.535156 411.679688 C 325.035156 413.882812 323.734375 416.28125 322.234375 418.480469 C 319.734375 422.382812 317.234375 425.882812 313.632812 428.679688 C 311.933594 432.578125 305.035156 431.480469 305.433594 426.882812 C 306.433594 415.179688 308.835938 403.578125 310.632812 391.980469 C 312.433594 381.078125 313.234375 369.578125 316.132812 358.882812 C 299.734375 351.578125 288.234375 335.078125 288.234375 315.882812 C 288.234375 289.882812 309.335938 268.78125 335.335938 268.78125 C 361.335938 268.78125 382.433594 289.882812 382.433594 315.882812 C 382.535156 333.882812 372.335938 349.578125 357.433594 357.480469 Z M 182.035156 351.980469 C 172.433594 351.179688 162.734375 350.679688 153.035156 350.578125 C 144.535156 350.480469 134.632812 348.679688 126.933594 352.679688 C 124.234375 354.078125 124.035156 358.78125 126.933594 360.179688 C 134.433594 363.679688 143.132812 361.980469 151.335938 361.980469 C 161.035156 361.980469 170.632812 362.179688 180.335938 362.382812 C 199.632812 362.980469 218.835938 364.28125 238.035156 364.882812 C 240.535156 364.980469 241.035156 361.078125 238.632812 360.480469 C 220.132812 355.980469 201.132812 353.578125 182.035156 351.980469 Z M 245.933594 285.980469 C 225.035156 284.980469 204.234375 284.480469 183.335938 283.980469 C 173.433594 283.78125 163.632812 283.480469 153.734375 283.179688 C 143.734375 282.882812 132.734375 280.980469 123.035156 283.179688 C 118.535156 284.179688 119.035156 290.578125 123.035156 291.78125 C 132.035156 294.480469 142.734375 293.382812 152.035156 293.578125 C 162.433594 293.78125 172.933594 293.78125 183.335938 293.679688 C 204.234375 293.382812 225.132812 292.28125 245.933594 289.980469 C 248.433594 289.78125 248.535156 286.078125 245.933594 285.980469 Z M 371.535156 231.582031 C 331.433594 227.082031 291.535156 226.082031 251.335938 224.382812 C 211.433594 222.679688 170.933594 221.28125 131.132812 223.582031 C 123.132812 224.082031 123.035156 235.78125 131.132812 235.980469 C 171.132812 237.28125 211.433594 235.78125 251.335938 235.179688 C 291.433594 234.582031 331.433594 235.679688 371.535156 234.382812 C 373.433594 234.382812 373.335938 231.78125 371.535156 231.582031 Z M 189.132812 149.882812 C 178.734375 149.882812 168.335938 149.882812 157.933594 149.980469 C 147.933594 150.082031 139.335938 149.679688 130.335938 153.882812 C 127.433594 155.179688 128.734375 159.082031 131.132812 159.980469 C 139.933594 163.480469 148.632812 162.480469 157.933594 162.382812 C 168.335938 162.179688 178.734375 162.082031 189.132812 162.082031 C 209.335938 162.082031 229.535156 162.480469 249.734375 163.179688 C 290.035156 164.480469 330.234375 166.882812 370.535156 167.882812 C 372.835938 167.980469 373.433594 164.179688 371.132812 163.78125 C 331.035156 156.28125 290.433594 152.882812 249.734375 151.179688 C 229.535156 150.382812 209.335938 149.980469 189.132812 149.882812 Z M 125.234375 91.882812 C 145.035156 94.382812 166.335938 92.082031 186.234375 91.980469 C 206.535156 91.882812 226.933594 91.78125 247.234375 91.679688 C 266.933594 91.582031 286.734375 91.179688 306.433594 91.082031 C 326.933594 90.980469 348.035156 90.082031 368.535156 91.582031 C 370.835938 91.78125 371.335938 87.882812 369.035156 87.582031 C 349.234375 84.78125 329.933594 82.382812 309.835938 81.679688 C 288.933594 80.980469 268.035156 80.382812 247.132812 80.28125 C 226.734375 80.082031 206.433594 80.179688 186.132812 80.179688 C 165.632812 80.28125 143.933594 78.480469 123.632812 81.28125 C 117.132812 82.082031 119.734375 91.179688 125.234375 91.882812 Z M 498.132812 52.179688 C 491.335938 47.882812 487.234375 41.980469 481.535156 36.582031 C 473.632812 29.082031 462.933594 29.28125 454.035156 35.082031 C 438.035156 45.480469 432.933594 70.382812 430.335938 87.882812 C 424.835938 125.28125 431.035156 163.582031 433.335938 200.980469 C 435.632812 240.082031 435.933594 279.28125 434.035156 318.382812 C 432.234375 355.28125 429.835938 393.480469 422.132812 429.679688 C 416.535156 456.179688 399.234375 485.882812 368.132812 482.480469 C 366.335938 482.28125 366.234375 479.679688 368.132812 479.679688 C 390.335938 479.382812 405.734375 459.980469 411.734375 440.382812 C 418.035156 419.882812 419.035156 397.382812 420.933594 376.078125 C 424.433594 335.980469 425.933594 295.578125 425.234375 255.382812 C 424.535156 215.882812 419.933594 176.679688 417.734375 137.28125 C 415.933594 104.980469 416.632812 63.882812 437.535156 37.082031 C 446.035156 26.179688 458.632812 18.480469 472.835938 20.582031 C 487.933594 22.78125 493.335938 36.082031 503.234375 45.582031 C 506.535156 48.980469 502.035156 54.679688 498.132812 52.179688" fill="#284594"/></g><g id="change1_2"><path d="M 354.535156 321.382812 C 353.035156 322.679688 352.835938 324.882812 352.933594 326.78125 C 353.035156 328.578125 352.933594 330.28125 353.132812 332.078125 C 353.433594 335.179688 355.734375 337.679688 359.035156 337.179688 C 362.433594 336.679688 363.835938 333.78125 363.335938 330.679688 C 362.933594 328.382812 362.132812 325.679688 360.933594 323.679688 C 359.734375 321.28125 356.933594 319.382812 354.535156 321.382812 Z M 326.835938 290.78125 C 325.335938 290.382812 325.035156 288.179688 326.433594 287.480469 C 339.234375 280.78125 353.535156 289.679688 358.132812 302.28125 C 358.835938 304.078125 358.035156 306.480469 356.734375 307.78125 C 354.835938 309.578125 352.234375 310.078125 349.933594 308.679688 C 347.335938 307.179688 346.632812 303.679688 345.035156 301.382812 C 340.835938 295.28125 333.632812 292.480469 326.835938 290.78125" fill="#f8b30d"/></g></g></svg>